<mxfile host="app.diagrams.net" modified="2023-08-10T07:57:22.982Z" agent="Mozilla/5.0 (Windows NT 10.0; Win64; x64; rv:109.0) Gecko/20100101 Firefox/116.0" etag="q6kUHXZuCPES49s8t5KN" version="21.6.7" type="github">
  <diagram id="R2lEEEUBdFMjLlhIrx00" name="Page-1">
    <mxGraphModel dx="1723" dy="760" grid="1" gridSize="10" guides="1" tooltips="1" connect="1" arrows="1" fold="1" page="1" pageScale="1" pageWidth="850" pageHeight="1100" math="0" shadow="0" extFonts="Permanent Marker^https://fonts.googleapis.com/css?family=Permanent+Marker">
      <root>
        <mxCell id="0" />
        <mxCell id="1" parent="0" />
        <mxCell id="MMDe2EedvgYd7hbVslVY-13" value="Password" style="ellipse;whiteSpace=wrap;html=1;" parent="1" vertex="1">
          <mxGeometry x="745" width="70" height="45" as="geometry" />
        </mxCell>
        <mxCell id="MMDe2EedvgYd7hbVslVY-15" value="&lt;u&gt;UserId&lt;/u&gt;" style="ellipse;whiteSpace=wrap;html=1;" parent="1" vertex="1">
          <mxGeometry x="860" width="70" height="45" as="geometry" />
        </mxCell>
        <mxCell id="MMDe2EedvgYd7hbVslVY-16" value="UserName" style="ellipse;whiteSpace=wrap;html=1;" parent="1" vertex="1">
          <mxGeometry x="955" width="70" height="45" as="geometry" />
        </mxCell>
        <mxCell id="MMDe2EedvgYd7hbVslVY-20" value="TeamName" style="ellipse;whiteSpace=wrap;html=1;" parent="1" vertex="1">
          <mxGeometry x="110" y="17.5" width="70" height="45" as="geometry" />
        </mxCell>
        <mxCell id="MMDe2EedvgYd7hbVslVY-21" value="&lt;u&gt;Team2&lt;/u&gt;" style="ellipse;whiteSpace=wrap;html=1;" parent="1" vertex="1">
          <mxGeometry x="440" y="605" width="70" height="45" as="geometry" />
        </mxCell>
        <mxCell id="MMDe2EedvgYd7hbVslVY-22" value="Location" style="ellipse;whiteSpace=wrap;html=1;" parent="1" vertex="1">
          <mxGeometry x="30" y="650" width="70" height="45" as="geometry" />
        </mxCell>
        <mxCell id="MMDe2EedvgYd7hbVslVY-23" value="GroundName" style="ellipse;whiteSpace=wrap;html=1;" parent="1" vertex="1">
          <mxGeometry x="125" y="655" width="80" height="40" as="geometry" />
        </mxCell>
        <mxCell id="MMDe2EedvgYd7hbVslVY-24" value="&lt;u&gt;GroundId&lt;/u&gt;" style="ellipse;whiteSpace=wrap;html=1;" parent="1" vertex="1">
          <mxGeometry x="225" y="650" width="60" height="45" as="geometry" />
        </mxCell>
        <mxCell id="g_sOR0M3uAeWTvC2kGnq-1" value="" style="rounded=0;whiteSpace=wrap;html=1;" parent="1" vertex="1">
          <mxGeometry x="720" y="90" width="120" height="60" as="geometry" />
        </mxCell>
        <mxCell id="g_sOR0M3uAeWTvC2kGnq-2" value="User" style="text;html=1;strokeColor=none;fillColor=none;align=center;verticalAlign=middle;whiteSpace=wrap;rounded=0;" parent="1" vertex="1">
          <mxGeometry x="750" y="105" width="60" height="30" as="geometry" />
        </mxCell>
        <mxCell id="g_sOR0M3uAeWTvC2kGnq-4" value="" style="endArrow=none;html=1;rounded=0;exitX=0.5;exitY=0;exitDx=0;exitDy=0;entryX=0.5;entryY=1;entryDx=0;entryDy=0;" parent="1" source="g_sOR0M3uAeWTvC2kGnq-1" target="MMDe2EedvgYd7hbVslVY-15" edge="1">
          <mxGeometry width="50" height="50" relative="1" as="geometry">
            <mxPoint x="920" y="70" as="sourcePoint" />
            <mxPoint x="940" y="30" as="targetPoint" />
          </mxGeometry>
        </mxCell>
        <mxCell id="g_sOR0M3uAeWTvC2kGnq-5" value="" style="endArrow=none;html=1;rounded=0;exitX=0.5;exitY=1;exitDx=0;exitDy=0;entryX=1;entryY=0.25;entryDx=0;entryDy=0;" parent="1" source="MMDe2EedvgYd7hbVslVY-16" target="g_sOR0M3uAeWTvC2kGnq-1" edge="1">
          <mxGeometry width="50" height="50" relative="1" as="geometry">
            <mxPoint x="1100" y="125" as="sourcePoint" />
            <mxPoint x="1150" y="105" as="targetPoint" />
          </mxGeometry>
        </mxCell>
        <mxCell id="g_sOR0M3uAeWTvC2kGnq-6" value="" style="endArrow=none;html=1;rounded=0;exitX=1;exitY=1;exitDx=0;exitDy=0;entryX=0.346;entryY=-0.04;entryDx=0;entryDy=0;entryPerimeter=0;" parent="1" source="MMDe2EedvgYd7hbVslVY-13" target="g_sOR0M3uAeWTvC2kGnq-1" edge="1">
          <mxGeometry width="50" height="50" relative="1" as="geometry">
            <mxPoint x="820" y="160" as="sourcePoint" />
            <mxPoint x="870" y="110" as="targetPoint" />
          </mxGeometry>
        </mxCell>
        <mxCell id="g_sOR0M3uAeWTvC2kGnq-9" value="" style="rounded=0;whiteSpace=wrap;html=1;" parent="1" vertex="1">
          <mxGeometry x="180" y="100" width="120" height="60" as="geometry" />
        </mxCell>
        <mxCell id="g_sOR0M3uAeWTvC2kGnq-10" value="Team" style="text;html=1;strokeColor=none;fillColor=none;align=center;verticalAlign=middle;whiteSpace=wrap;rounded=0;" parent="1" vertex="1">
          <mxGeometry x="200" y="115" width="60" height="30" as="geometry" />
        </mxCell>
        <mxCell id="g_sOR0M3uAeWTvC2kGnq-17" value="" style="endArrow=none;html=1;rounded=0;entryX=0.5;entryY=1;entryDx=0;entryDy=0;exitX=0.25;exitY=0;exitDx=0;exitDy=0;" parent="1" target="MMDe2EedvgYd7hbVslVY-17" edge="1">
          <mxGeometry width="50" height="50" relative="1" as="geometry">
            <mxPoint x="200" y="100.00000000000011" as="sourcePoint" />
            <mxPoint x="170" y="60" as="targetPoint" />
          </mxGeometry>
        </mxCell>
        <mxCell id="g_sOR0M3uAeWTvC2kGnq-18" value="" style="endArrow=none;html=1;rounded=0;entryX=0.5;entryY=1;entryDx=0;entryDy=0;exitX=0.5;exitY=0;exitDx=0;exitDy=0;" parent="1" target="MMDe2EedvgYd7hbVslVY-20" edge="1">
          <mxGeometry width="50" height="50" relative="1" as="geometry">
            <mxPoint x="230" y="100.00000000000011" as="sourcePoint" />
            <mxPoint x="275" y="65" as="targetPoint" />
          </mxGeometry>
        </mxCell>
        <mxCell id="g_sOR0M3uAeWTvC2kGnq-19" value="" style="rounded=0;whiteSpace=wrap;html=1;" parent="1" vertex="1">
          <mxGeometry x="70" y="540" width="120" height="60" as="geometry" />
        </mxCell>
        <mxCell id="g_sOR0M3uAeWTvC2kGnq-20" value="Ground" style="text;html=1;strokeColor=none;fillColor=none;align=center;verticalAlign=middle;whiteSpace=wrap;rounded=0;" parent="1" vertex="1">
          <mxGeometry x="100" y="555" width="60" height="30" as="geometry" />
        </mxCell>
        <mxCell id="g_sOR0M3uAeWTvC2kGnq-21" value="Level" style="rounded=0;whiteSpace=wrap;html=1;" parent="1" vertex="1">
          <mxGeometry x="160" y="300" width="120" height="60" as="geometry" />
        </mxCell>
        <mxCell id="g_sOR0M3uAeWTvC2kGnq-23" value="" style="rounded=0;whiteSpace=wrap;html=1;" parent="1" vertex="1">
          <mxGeometry x="475" y="475" width="120" height="60" as="geometry" />
        </mxCell>
        <mxCell id="g_sOR0M3uAeWTvC2kGnq-24" value="Event" style="text;html=1;strokeColor=none;fillColor=none;align=center;verticalAlign=middle;whiteSpace=wrap;rounded=0;" parent="1" vertex="1">
          <mxGeometry x="505" y="490" width="60" height="30" as="geometry" />
        </mxCell>
        <mxCell id="g_sOR0M3uAeWTvC2kGnq-37" value="" style="endArrow=none;html=1;rounded=0;exitX=0.75;exitY=1;exitDx=0;exitDy=0;entryX=0.5;entryY=0;entryDx=0;entryDy=0;" parent="1" source="g_sOR0M3uAeWTvC2kGnq-19" target="MMDe2EedvgYd7hbVslVY-24" edge="1">
          <mxGeometry width="50" height="50" relative="1" as="geometry">
            <mxPoint x="230" y="580" as="sourcePoint" />
            <mxPoint x="280" y="530" as="targetPoint" />
          </mxGeometry>
        </mxCell>
        <mxCell id="g_sOR0M3uAeWTvC2kGnq-40" value="" style="rounded=0;whiteSpace=wrap;html=1;" parent="1" vertex="1">
          <mxGeometry x="510" y="100" width="120" height="60" as="geometry" />
        </mxCell>
        <mxCell id="g_sOR0M3uAeWTvC2kGnq-41" value="Club" style="text;html=1;strokeColor=none;fillColor=none;align=center;verticalAlign=middle;whiteSpace=wrap;rounded=0;" parent="1" vertex="1">
          <mxGeometry x="540" y="115" width="60" height="30" as="geometry" />
        </mxCell>
        <mxCell id="g_sOR0M3uAeWTvC2kGnq-43" value="" style="ellipse;whiteSpace=wrap;html=1;" parent="1" vertex="1">
          <mxGeometry x="470" y="20" width="70" height="45" as="geometry" />
        </mxCell>
        <mxCell id="g_sOR0M3uAeWTvC2kGnq-44" value="ClubId" style="text;html=1;strokeColor=none;fillColor=none;align=center;verticalAlign=middle;whiteSpace=wrap;rounded=0;" parent="1" vertex="1">
          <mxGeometry x="475" y="30" width="60" height="27.5" as="geometry" />
        </mxCell>
        <mxCell id="g_sOR0M3uAeWTvC2kGnq-45" value="" style="endArrow=none;html=1;rounded=0;" parent="1" edge="1">
          <mxGeometry width="50" height="50" relative="1" as="geometry">
            <mxPoint x="480" y="50" as="sourcePoint" />
            <mxPoint x="530" y="50" as="targetPoint" />
          </mxGeometry>
        </mxCell>
        <mxCell id="g_sOR0M3uAeWTvC2kGnq-46" value="" style="ellipse;whiteSpace=wrap;html=1;" parent="1" vertex="1">
          <mxGeometry x="545" y="20" width="70" height="45" as="geometry" />
        </mxCell>
        <mxCell id="g_sOR0M3uAeWTvC2kGnq-47" value="ClubName" style="text;html=1;strokeColor=none;fillColor=none;align=center;verticalAlign=middle;whiteSpace=wrap;rounded=0;" parent="1" vertex="1">
          <mxGeometry x="550" y="27.5" width="60" height="30" as="geometry" />
        </mxCell>
        <mxCell id="g_sOR0M3uAeWTvC2kGnq-49" value="" style="endArrow=none;html=1;rounded=0;entryX=0.5;entryY=1;entryDx=0;entryDy=0;exitX=0.183;exitY=0;exitDx=0;exitDy=0;exitPerimeter=0;" parent="1" source="g_sOR0M3uAeWTvC2kGnq-40" target="g_sOR0M3uAeWTvC2kGnq-43" edge="1">
          <mxGeometry width="50" height="50" relative="1" as="geometry">
            <mxPoint x="195" y="210" as="sourcePoint" />
            <mxPoint x="245" y="160" as="targetPoint" />
          </mxGeometry>
        </mxCell>
        <mxCell id="g_sOR0M3uAeWTvC2kGnq-50" value="" style="endArrow=none;html=1;rounded=0;entryX=0.6;entryY=1;entryDx=0;entryDy=0;entryPerimeter=0;exitX=0.5;exitY=0;exitDx=0;exitDy=0;" parent="1" source="g_sOR0M3uAeWTvC2kGnq-40" target="g_sOR0M3uAeWTvC2kGnq-46" edge="1">
          <mxGeometry width="50" height="50" relative="1" as="geometry">
            <mxPoint x="195" y="210" as="sourcePoint" />
            <mxPoint x="245" y="160" as="targetPoint" />
          </mxGeometry>
        </mxCell>
        <mxCell id="g_sOR0M3uAeWTvC2kGnq-53" value="" style="ellipse;whiteSpace=wrap;html=1;" parent="1" vertex="1">
          <mxGeometry x="970.86" y="287.5" width="109.14" height="52.5" as="geometry" />
        </mxCell>
        <mxCell id="g_sOR0M3uAeWTvC2kGnq-54" value="" style="ellipse;whiteSpace=wrap;html=1;" parent="1" vertex="1">
          <mxGeometry x="905.86" y="412.5" width="110" height="45" as="geometry" />
        </mxCell>
        <mxCell id="g_sOR0M3uAeWTvC2kGnq-55" value="" style="rounded=0;whiteSpace=wrap;html=1;" parent="1" vertex="1">
          <mxGeometry x="745.86" y="290" width="120" height="60" as="geometry" />
        </mxCell>
        <mxCell id="g_sOR0M3uAeWTvC2kGnq-56" value="Tournament" style="text;html=1;strokeColor=none;fillColor=none;align=center;verticalAlign=middle;whiteSpace=wrap;rounded=0;" parent="1" vertex="1">
          <mxGeometry x="775.86" y="302.5" width="60" height="30" as="geometry" />
        </mxCell>
        <mxCell id="g_sOR0M3uAeWTvC2kGnq-57" value="TournamentId" style="text;html=1;strokeColor=none;fillColor=none;align=center;verticalAlign=middle;whiteSpace=wrap;rounded=0;" parent="1" vertex="1">
          <mxGeometry x="993.36" y="299.5" width="64.14" height="27.5" as="geometry" />
        </mxCell>
        <mxCell id="g_sOR0M3uAeWTvC2kGnq-58" value="" style="endArrow=none;html=1;rounded=0;entryX=1;entryY=0.75;entryDx=0;entryDy=0;exitX=0;exitY=0.75;exitDx=0;exitDy=0;" parent="1" source="g_sOR0M3uAeWTvC2kGnq-57" target="g_sOR0M3uAeWTvC2kGnq-57" edge="1">
          <mxGeometry width="50" height="50" relative="1" as="geometry">
            <mxPoint x="990.86" y="309" as="sourcePoint" />
            <mxPoint x="1040.86" y="309" as="targetPoint" />
          </mxGeometry>
        </mxCell>
        <mxCell id="g_sOR0M3uAeWTvC2kGnq-59" value="TournamentName" style="text;html=1;strokeColor=none;fillColor=none;align=center;verticalAlign=middle;whiteSpace=wrap;rounded=0;" parent="1" vertex="1">
          <mxGeometry x="930.86" y="420" width="60" height="30" as="geometry" />
        </mxCell>
        <mxCell id="g_sOR0M3uAeWTvC2kGnq-60" value="" style="endArrow=none;html=1;rounded=0;exitX=1;exitY=0.5;exitDx=0;exitDy=0;entryX=0;entryY=1;entryDx=0;entryDy=0;" parent="1" source="g_sOR0M3uAeWTvC2kGnq-55" edge="1">
          <mxGeometry width="50" height="50" relative="1" as="geometry">
            <mxPoint x="885.86" y="300" as="sourcePoint" />
            <mxPoint x="983.5229036204968" y="318.1469821191142" as="targetPoint" />
          </mxGeometry>
        </mxCell>
        <mxCell id="g_sOR0M3uAeWTvC2kGnq-61" value="" style="endArrow=none;html=1;rounded=0;exitX=1;exitY=0.75;exitDx=0;exitDy=0;entryX=0;entryY=0.5;entryDx=0;entryDy=0;" parent="1" source="g_sOR0M3uAeWTvC2kGnq-55" target="g_sOR0M3uAeWTvC2kGnq-54" edge="1">
          <mxGeometry width="50" height="50" relative="1" as="geometry">
            <mxPoint x="880.86" y="375" as="sourcePoint" />
            <mxPoint x="930.86" y="325" as="targetPoint" />
          </mxGeometry>
        </mxCell>
        <mxCell id="g_sOR0M3uAeWTvC2kGnq-65" value="belong" style="shape=rhombus;perimeter=rhombusPerimeter;whiteSpace=wrap;html=1;align=center;" parent="1" vertex="1">
          <mxGeometry x="360" y="100" width="75" height="60" as="geometry" />
        </mxCell>
        <mxCell id="g_sOR0M3uAeWTvC2kGnq-69" value="" style="edgeStyle=entityRelationEdgeStyle;fontSize=12;html=1;endArrow=ERoneToMany;rounded=0;exitX=1;exitY=0.5;exitDx=0;exitDy=0;entryX=0;entryY=0.5;entryDx=0;entryDy=0;" parent="1" source="g_sOR0M3uAeWTvC2kGnq-65" target="g_sOR0M3uAeWTvC2kGnq-40" edge="1">
          <mxGeometry width="100" height="100" relative="1" as="geometry">
            <mxPoint x="400" y="140" as="sourcePoint" />
            <mxPoint x="460" y="140" as="targetPoint" />
          </mxGeometry>
        </mxCell>
        <mxCell id="MMDe2EedvgYd7hbVslVY-30" value="EventName" style="ellipse;whiteSpace=wrap;html=1;" parent="1" vertex="1">
          <mxGeometry x="520" y="605" width="70" height="45" as="geometry" />
        </mxCell>
        <mxCell id="MMDe2EedvgYd7hbVslVY-39" value="" style="edgeStyle=orthogonalEdgeStyle;rounded=0;orthogonalLoop=1;jettySize=auto;html=1;exitX=0;exitY=0.5;exitDx=0;exitDy=0;entryX=0.5;entryY=0;entryDx=0;entryDy=0;" parent="1" source="MMDe2EedvgYd7hbVslVY-32" edge="1">
          <mxGeometry relative="1" as="geometry">
            <mxPoint x="170" y="335" as="sourcePoint" />
          </mxGeometry>
        </mxCell>
        <mxCell id="MMDe2EedvgYd7hbVslVY-32" value="has" style="rhombus;whiteSpace=wrap;html=1;rotation=0;" parent="1" vertex="1">
          <mxGeometry x="200" y="212.5" width="50" height="45" as="geometry" />
        </mxCell>
        <mxCell id="MMDe2EedvgYd7hbVslVY-53" value="" style="endArrow=none;html=1;rounded=0;entryX=0.35;entryY=0.97;entryDx=0;entryDy=0;entryPerimeter=0;exitX=0.683;exitY=-0.017;exitDx=0;exitDy=0;exitPerimeter=0;" parent="1" edge="1">
          <mxGeometry width="50" height="50" relative="1" as="geometry">
            <mxPoint x="251.96000000000004" y="98.98000000000002" as="sourcePoint" />
            <mxPoint x="218" y="57.625" as="targetPoint" />
            <Array as="points" />
          </mxGeometry>
        </mxCell>
        <mxCell id="MMDe2EedvgYd7hbVslVY-55" value="" style="endArrow=none;html=1;rounded=0;exitX=0.398;exitY=0.996;exitDx=0;exitDy=0;exitPerimeter=0;" parent="1" source="g_sOR0M3uAeWTvC2kGnq-19" target="MMDe2EedvgYd7hbVslVY-23" edge="1">
          <mxGeometry width="50" height="50" relative="1" as="geometry">
            <mxPoint x="89" y="448" as="sourcePoint" />
            <mxPoint x="147" y="431" as="targetPoint" />
            <Array as="points" />
          </mxGeometry>
        </mxCell>
        <mxCell id="MMDe2EedvgYd7hbVslVY-56" value="" style="endArrow=none;html=1;rounded=0;exitX=0.25;exitY=1;exitDx=0;exitDy=0;entryX=0;entryY=0;entryDx=0;entryDy=0;" parent="1" source="g_sOR0M3uAeWTvC2kGnq-19" target="MMDe2EedvgYd7hbVslVY-22" edge="1">
          <mxGeometry width="50" height="50" relative="1" as="geometry">
            <mxPoint x="99" y="458" as="sourcePoint" />
            <mxPoint x="157" y="441" as="targetPoint" />
            <Array as="points" />
          </mxGeometry>
        </mxCell>
        <mxCell id="MMDe2EedvgYd7hbVslVY-57" value="" style="endArrow=none;html=1;rounded=0;entryX=0.5;entryY=0;entryDx=0;entryDy=0;exitX=0.25;exitY=1;exitDx=0;exitDy=0;" parent="1" source="g_sOR0M3uAeWTvC2kGnq-23" target="MMDe2EedvgYd7hbVslVY-21" edge="1">
          <mxGeometry width="50" height="50" relative="1" as="geometry">
            <mxPoint x="740" y="427" as="sourcePoint" />
            <mxPoint x="788" y="410" as="targetPoint" />
            <Array as="points" />
          </mxGeometry>
        </mxCell>
        <mxCell id="MMDe2EedvgYd7hbVslVY-58" value="" style="endArrow=none;html=1;rounded=0;entryX=0.5;entryY=0;entryDx=0;entryDy=0;exitX=0.405;exitY=1;exitDx=0;exitDy=0;exitPerimeter=0;" parent="1" source="g_sOR0M3uAeWTvC2kGnq-23" target="MMDe2EedvgYd7hbVslVY-30" edge="1">
          <mxGeometry width="50" height="50" relative="1" as="geometry">
            <mxPoint x="740" y="430" as="sourcePoint" />
            <mxPoint x="790" y="457" as="targetPoint" />
            <Array as="points" />
          </mxGeometry>
        </mxCell>
        <mxCell id="MMDe2EedvgYd7hbVslVY-59" value="&lt;u&gt;LevelId&lt;/u&gt;" style="ellipse;whiteSpace=wrap;html=1;" parent="1" vertex="1">
          <mxGeometry x="20" y="325" width="70" height="45" as="geometry" />
        </mxCell>
        <mxCell id="MMDe2EedvgYd7hbVslVY-60" value="" style="endArrow=none;html=1;rounded=0;exitX=0;exitY=0.5;exitDx=0;exitDy=0;entryX=1;entryY=0.5;entryDx=0;entryDy=0;" parent="1" source="g_sOR0M3uAeWTvC2kGnq-21" target="MMDe2EedvgYd7hbVslVY-59" edge="1">
          <mxGeometry width="50" height="50" relative="1" as="geometry">
            <mxPoint x="295" y="617.5" as="sourcePoint" />
            <mxPoint x="285" y="467.5" as="targetPoint" />
            <Array as="points" />
          </mxGeometry>
        </mxCell>
        <mxCell id="MMDe2EedvgYd7hbVslVY-61" value="LevelName" style="ellipse;whiteSpace=wrap;html=1;" parent="1" vertex="1">
          <mxGeometry x="20" y="400" width="70" height="35" as="geometry" />
        </mxCell>
        <mxCell id="MMDe2EedvgYd7hbVslVY-62" value="" style="endArrow=none;html=1;rounded=0;entryX=1.014;entryY=0.319;entryDx=0;entryDy=0;exitX=0;exitY=0.75;exitDx=0;exitDy=0;entryPerimeter=0;" parent="1" source="g_sOR0M3uAeWTvC2kGnq-21" target="MMDe2EedvgYd7hbVslVY-61" edge="1">
          <mxGeometry width="50" height="50" relative="1" as="geometry">
            <mxPoint x="635" y="497.5" as="sourcePoint" />
            <mxPoint x="715" y="514.5" as="targetPoint" />
            <Array as="points" />
          </mxGeometry>
        </mxCell>
        <mxCell id="MMDe2EedvgYd7hbVslVY-67" value="" style="edgeStyle=orthogonalEdgeStyle;rounded=0;orthogonalLoop=1;jettySize=auto;html=1;" parent="1" source="MMDe2EedvgYd7hbVslVY-65" edge="1">
          <mxGeometry relative="1" as="geometry" />
        </mxCell>
        <mxCell id="MMDe2EedvgYd7hbVslVY-65" value="has" style="rhombus;whiteSpace=wrap;html=1;rotation=0;" parent="1" vertex="1">
          <mxGeometry x="540" y="280" width="50" height="40" as="geometry" />
        </mxCell>
        <mxCell id="MMDe2EedvgYd7hbVslVY-38" style="edgeStyle=orthogonalEdgeStyle;rounded=0;orthogonalLoop=1;jettySize=auto;html=1;exitX=0;exitY=1;exitDx=0;exitDy=0;entryX=0.5;entryY=0;entryDx=0;entryDy=0;" parent="1" target="MMDe2EedvgYd7hbVslVY-32" edge="1">
          <mxGeometry relative="1" as="geometry" />
        </mxCell>
        <mxCell id="MMDe2EedvgYd7hbVslVY-66" value="" style="edgeStyle=orthogonalEdgeStyle;rounded=0;orthogonalLoop=1;jettySize=auto;html=1;" parent="1" target="MMDe2EedvgYd7hbVslVY-65" edge="1">
          <mxGeometry relative="1" as="geometry" />
        </mxCell>
        <mxCell id="MMDe2EedvgYd7hbVslVY-17" value="TeamId" style="ellipse;whiteSpace=wrap;html=1;" parent="1" vertex="1">
          <mxGeometry x="30" y="17.5" width="70" height="45" as="geometry" />
        </mxCell>
        <mxCell id="HT8lN6Gd-w-kcZW4kbt7-12" value="Has" style="rhombus;whiteSpace=wrap;html=1;rotation=0;" parent="1" vertex="1">
          <mxGeometry x="310" y="340" width="50" height="50" as="geometry" />
        </mxCell>
        <mxCell id="HT8lN6Gd-w-kcZW4kbt7-13" value="" style="edgeStyle=entityRelationEdgeStyle;fontSize=12;html=1;endArrow=ERmandOne;rounded=0;entryX=0;entryY=0.5;entryDx=0;entryDy=0;exitX=0.5;exitY=1;exitDx=0;exitDy=0;" parent="1" source="g_sOR0M3uAeWTvC2kGnq-9" target="MMDe2EedvgYd7hbVslVY-65" edge="1">
          <mxGeometry width="100" height="100" relative="1" as="geometry">
            <mxPoint x="460" y="420" as="sourcePoint" />
            <mxPoint x="560" y="320" as="targetPoint" />
          </mxGeometry>
        </mxCell>
        <mxCell id="HT8lN6Gd-w-kcZW4kbt7-14" value="" style="edgeStyle=entityRelationEdgeStyle;fontSize=12;html=1;endArrow=ERoneToMany;rounded=0;entryX=0;entryY=0.5;entryDx=0;entryDy=0;exitX=1;exitY=0.5;exitDx=0;exitDy=0;" parent="1" source="MMDe2EedvgYd7hbVslVY-65" target="g_sOR0M3uAeWTvC2kGnq-55" edge="1">
          <mxGeometry width="100" height="100" relative="1" as="geometry">
            <mxPoint x="460" y="420" as="sourcePoint" />
            <mxPoint x="560" y="320" as="targetPoint" />
          </mxGeometry>
        </mxCell>
        <mxCell id="HT8lN6Gd-w-kcZW4kbt7-26" value="" style="edgeStyle=entityRelationEdgeStyle;fontSize=12;html=1;endArrow=ERmandOne;rounded=0;entryX=1;entryY=0.5;entryDx=0;entryDy=0;exitX=0;exitY=0.5;exitDx=0;exitDy=0;" parent="1" source="g_sOR0M3uAeWTvC2kGnq-65" target="g_sOR0M3uAeWTvC2kGnq-9" edge="1">
          <mxGeometry width="100" height="100" relative="1" as="geometry">
            <mxPoint x="770" y="230" as="sourcePoint" />
            <mxPoint x="870" y="130" as="targetPoint" />
          </mxGeometry>
        </mxCell>
        <mxCell id="HT8lN6Gd-w-kcZW4kbt7-32" value="Captain" style="ellipse;whiteSpace=wrap;html=1;align=center;" parent="1" vertex="1">
          <mxGeometry x="190" y="20" width="70" height="40" as="geometry" />
        </mxCell>
        <mxCell id="HT8lN6Gd-w-kcZW4kbt7-33" value="Coach" style="ellipse;whiteSpace=wrap;html=1;align=center;" parent="1" vertex="1">
          <mxGeometry x="265" y="20" width="75" height="40" as="geometry" />
        </mxCell>
        <mxCell id="HT8lN6Gd-w-kcZW4kbt7-34" value="" style="endArrow=none;html=1;rounded=0;exitX=0.817;exitY=0;exitDx=0;exitDy=0;exitPerimeter=0;entryX=0.5;entryY=1;entryDx=0;entryDy=0;" parent="1" target="HT8lN6Gd-w-kcZW4kbt7-33" edge="1">
          <mxGeometry relative="1" as="geometry">
            <mxPoint x="268.0400000000004" y="100.00000000000011" as="sourcePoint" />
            <mxPoint x="400" y="70" as="targetPoint" />
          </mxGeometry>
        </mxCell>
        <mxCell id="pDRQpuuFtB-g-X7B2x5A-2" value="" style="endArrow=none;html=1;rounded=0;exitX=0;exitY=0.5;exitDx=0;exitDy=0;entryX=1;entryY=0.25;entryDx=0;entryDy=0;" edge="1" parent="1" source="pDRQpuuFtB-g-X7B2x5A-11" target="g_sOR0M3uAeWTvC2kGnq-19">
          <mxGeometry width="50" height="50" relative="1" as="geometry">
            <mxPoint x="530" y="430" as="sourcePoint" />
            <mxPoint x="580" y="380" as="targetPoint" />
          </mxGeometry>
        </mxCell>
        <mxCell id="pDRQpuuFtB-g-X7B2x5A-3" value="&lt;u&gt;Team1&lt;/u&gt;" style="ellipse;whiteSpace=wrap;html=1;" vertex="1" parent="1">
          <mxGeometry x="370" y="580" width="70" height="45" as="geometry" />
        </mxCell>
        <mxCell id="pDRQpuuFtB-g-X7B2x5A-4" value="" style="endArrow=none;html=1;rounded=0;entryX=0.5;entryY=0;entryDx=0;entryDy=0;exitX=0;exitY=1;exitDx=0;exitDy=0;" edge="1" parent="1" target="pDRQpuuFtB-g-X7B2x5A-3" source="g_sOR0M3uAeWTvC2kGnq-23">
          <mxGeometry width="50" height="50" relative="1" as="geometry">
            <mxPoint x="515" y="545" as="sourcePoint" />
            <mxPoint x="798" y="420" as="targetPoint" />
            <Array as="points" />
          </mxGeometry>
        </mxCell>
        <mxCell id="pDRQpuuFtB-g-X7B2x5A-5" value="&lt;u&gt;Date&lt;/u&gt;" style="ellipse;whiteSpace=wrap;html=1;" vertex="1" parent="1">
          <mxGeometry x="620" y="595" width="70" height="45" as="geometry" />
        </mxCell>
        <mxCell id="pDRQpuuFtB-g-X7B2x5A-6" value="" style="endArrow=none;html=1;rounded=0;entryX=0.5;entryY=0;entryDx=0;entryDy=0;exitX=0.626;exitY=1.005;exitDx=0;exitDy=0;exitPerimeter=0;" edge="1" parent="1" target="pDRQpuuFtB-g-X7B2x5A-5" source="g_sOR0M3uAeWTvC2kGnq-23">
          <mxGeometry width="50" height="50" relative="1" as="geometry">
            <mxPoint x="525" y="555" as="sourcePoint" />
            <mxPoint x="808" y="430" as="targetPoint" />
            <Array as="points" />
          </mxGeometry>
        </mxCell>
        <mxCell id="pDRQpuuFtB-g-X7B2x5A-7" value="&lt;u&gt;EventId&lt;/u&gt;" style="ellipse;whiteSpace=wrap;html=1;" vertex="1" parent="1">
          <mxGeometry x="710" y="605" width="70" height="45" as="geometry" />
        </mxCell>
        <mxCell id="pDRQpuuFtB-g-X7B2x5A-8" value="" style="endArrow=none;html=1;rounded=0;entryX=0.5;entryY=0;entryDx=0;entryDy=0;exitX=1;exitY=1;exitDx=0;exitDy=0;" edge="1" parent="1" target="pDRQpuuFtB-g-X7B2x5A-7" source="g_sOR0M3uAeWTvC2kGnq-23">
          <mxGeometry width="50" height="50" relative="1" as="geometry">
            <mxPoint x="850" y="565" as="sourcePoint" />
            <mxPoint x="1058" y="410" as="targetPoint" />
            <Array as="points" />
          </mxGeometry>
        </mxCell>
        <mxCell id="pDRQpuuFtB-g-X7B2x5A-9" value="&lt;u&gt;GroundId&lt;/u&gt;" style="ellipse;whiteSpace=wrap;html=1;" vertex="1" parent="1">
          <mxGeometry x="720" y="532.5" width="70" height="45" as="geometry" />
        </mxCell>
        <mxCell id="pDRQpuuFtB-g-X7B2x5A-10" value="" style="endArrow=none;html=1;rounded=0;entryX=0.5;entryY=0;entryDx=0;entryDy=0;exitX=0.996;exitY=0.824;exitDx=0;exitDy=0;exitPerimeter=0;" edge="1" parent="1" target="pDRQpuuFtB-g-X7B2x5A-9" source="g_sOR0M3uAeWTvC2kGnq-23">
          <mxGeometry width="50" height="50" relative="1" as="geometry">
            <mxPoint x="600" y="525" as="sourcePoint" />
            <mxPoint x="873" y="400" as="targetPoint" />
            <Array as="points" />
          </mxGeometry>
        </mxCell>
        <mxCell id="pDRQpuuFtB-g-X7B2x5A-12" value="Email" style="ellipse;whiteSpace=wrap;html=1;" vertex="1" parent="1">
          <mxGeometry x="645" y="7.5" width="70" height="45" as="geometry" />
        </mxCell>
        <mxCell id="pDRQpuuFtB-g-X7B2x5A-13" value="" style="endArrow=none;html=1;rounded=0;exitX=1;exitY=1;exitDx=0;exitDy=0;" edge="1" parent="1" source="pDRQpuuFtB-g-X7B2x5A-12">
          <mxGeometry width="50" height="50" relative="1" as="geometry">
            <mxPoint x="735" y="210" as="sourcePoint" />
            <mxPoint x="740" y="90" as="targetPoint" />
          </mxGeometry>
        </mxCell>
        <mxCell id="pDRQpuuFtB-g-X7B2x5A-26" value="" style="endArrow=none;html=1;rounded=0;entryX=0.43;entryY=0.001;entryDx=0;entryDy=0;exitX=0.5;exitY=1;exitDx=0;exitDy=0;entryPerimeter=0;" edge="1" parent="1" source="pDRQpuuFtB-g-X7B2x5A-27" target="g_sOR0M3uAeWTvC2kGnq-55">
          <mxGeometry width="50" height="50" relative="1" as="geometry">
            <mxPoint x="798.9140728933229" y="271.89231012048833" as="sourcePoint" />
            <mxPoint x="975.86" y="382.5" as="targetPoint" />
          </mxGeometry>
        </mxCell>
        <mxCell id="pDRQpuuFtB-g-X7B2x5A-29" value="" style="endArrow=none;html=1;rounded=0;exitX=1;exitY=0.5;exitDx=0;exitDy=0;entryX=0;entryY=1;entryDx=0;entryDy=0;" edge="1" parent="1" target="pDRQpuuFtB-g-X7B2x5A-30">
          <mxGeometry width="50" height="50" relative="1" as="geometry">
            <mxPoint x="825.86" y="290" as="sourcePoint" />
            <mxPoint x="885.86" y="232.5" as="targetPoint" />
          </mxGeometry>
        </mxCell>
        <mxCell id="pDRQpuuFtB-g-X7B2x5A-30" value="UserId" style="ellipse;whiteSpace=wrap;html=1;" vertex="1" parent="1">
          <mxGeometry x="905.86" y="235" width="90" height="45" as="geometry" />
        </mxCell>
        <mxCell id="pDRQpuuFtB-g-X7B2x5A-32" value="" style="endArrow=none;html=1;rounded=0;exitX=0.5;exitY=0;exitDx=0;exitDy=0;" edge="1" parent="1" source="MMDe2EedvgYd7hbVslVY-32">
          <mxGeometry width="50" height="50" relative="1" as="geometry">
            <mxPoint x="460" y="280" as="sourcePoint" />
            <mxPoint x="240" y="160" as="targetPoint" />
          </mxGeometry>
        </mxCell>
        <mxCell id="pDRQpuuFtB-g-X7B2x5A-33" value="" style="endArrow=none;html=1;rounded=0;exitX=0.5;exitY=0;exitDx=0;exitDy=0;entryX=0.5;entryY=1;entryDx=0;entryDy=0;" edge="1" parent="1" source="g_sOR0M3uAeWTvC2kGnq-21" target="MMDe2EedvgYd7hbVslVY-32">
          <mxGeometry width="50" height="50" relative="1" as="geometry">
            <mxPoint x="590" y="300" as="sourcePoint" />
            <mxPoint x="640" y="250" as="targetPoint" />
          </mxGeometry>
        </mxCell>
        <mxCell id="pDRQpuuFtB-g-X7B2x5A-36" value="Has" style="rhombus;whiteSpace=wrap;html=1;" vertex="1" parent="1">
          <mxGeometry x="370" y="277.5" width="80" height="80" as="geometry" />
        </mxCell>
        <mxCell id="pDRQpuuFtB-g-X7B2x5A-37" value="" style="endArrow=none;html=1;rounded=0;exitX=0.5;exitY=0;exitDx=0;exitDy=0;entryX=0.417;entryY=1;entryDx=0;entryDy=0;entryPerimeter=0;" edge="1" parent="1" source="pDRQpuuFtB-g-X7B2x5A-36" target="g_sOR0M3uAeWTvC2kGnq-9">
          <mxGeometry width="50" height="50" relative="1" as="geometry">
            <mxPoint x="810" y="320" as="sourcePoint" />
            <mxPoint x="240" y="170" as="targetPoint" />
          </mxGeometry>
        </mxCell>
        <mxCell id="pDRQpuuFtB-g-X7B2x5A-38" value="" style="endArrow=none;html=1;rounded=0;entryX=0.25;entryY=0;entryDx=0;entryDy=0;exitX=0.5;exitY=1;exitDx=0;exitDy=0;" edge="1" parent="1" source="pDRQpuuFtB-g-X7B2x5A-36" target="g_sOR0M3uAeWTvC2kGnq-23">
          <mxGeometry width="50" height="50" relative="1" as="geometry">
            <mxPoint x="210" y="175" as="sourcePoint" />
            <mxPoint x="460" y="140" as="targetPoint" />
          </mxGeometry>
        </mxCell>
        <mxCell id="pDRQpuuFtB-g-X7B2x5A-39" value="Has" style="rhombus;whiteSpace=wrap;html=1;rotation=45;" vertex="1" parent="1">
          <mxGeometry x="620" y="395" width="80" height="80" as="geometry" />
        </mxCell>
        <mxCell id="pDRQpuuFtB-g-X7B2x5A-41" value="" style="endArrow=none;html=1;rounded=0;exitX=0.5;exitY=0;exitDx=0;exitDy=0;entryX=0.5;entryY=1;entryDx=0;entryDy=0;" edge="1" parent="1" source="pDRQpuuFtB-g-X7B2x5A-39" target="g_sOR0M3uAeWTvC2kGnq-55">
          <mxGeometry width="50" height="50" relative="1" as="geometry">
            <mxPoint x="744.1442712474617" y="411.7157287525381" as="sourcePoint" />
            <mxPoint x="885.86" y="412.5" as="targetPoint" />
          </mxGeometry>
        </mxCell>
        <mxCell id="pDRQpuuFtB-g-X7B2x5A-42" value="" style="endArrow=none;html=1;rounded=0;exitX=0.5;exitY=1;exitDx=0;exitDy=0;" edge="1" parent="1" source="pDRQpuuFtB-g-X7B2x5A-39" target="g_sOR0M3uAeWTvC2kGnq-23">
          <mxGeometry width="50" height="50" relative="1" as="geometry">
            <mxPoint x="700" y="440" as="sourcePoint" />
            <mxPoint x="380" y="620" as="targetPoint" />
          </mxGeometry>
        </mxCell>
        <mxCell id="pDRQpuuFtB-g-X7B2x5A-43" value="" style="endArrow=none;html=1;rounded=0;entryX=0.5;entryY=1;entryDx=0;entryDy=0;exitX=0.25;exitY=0;exitDx=0;exitDy=0;" edge="1" parent="1" source="g_sOR0M3uAeWTvC2kGnq-19" target="HT8lN6Gd-w-kcZW4kbt7-12">
          <mxGeometry width="50" height="50" relative="1" as="geometry">
            <mxPoint x="430" y="360" as="sourcePoint" />
            <mxPoint x="480" y="310" as="targetPoint" />
          </mxGeometry>
        </mxCell>
        <mxCell id="pDRQpuuFtB-g-X7B2x5A-44" value="" style="endArrow=none;html=1;rounded=0;entryX=0.417;entryY=1;entryDx=0;entryDy=0;entryPerimeter=0;exitX=0.5;exitY=0;exitDx=0;exitDy=0;" edge="1" parent="1" source="HT8lN6Gd-w-kcZW4kbt7-12" target="g_sOR0M3uAeWTvC2kGnq-9">
          <mxGeometry width="50" height="50" relative="1" as="geometry">
            <mxPoint x="550" y="310" as="sourcePoint" />
            <mxPoint x="480" y="270" as="targetPoint" />
          </mxGeometry>
        </mxCell>
        <mxCell id="pDRQpuuFtB-g-X7B2x5A-52" value="" style="endArrow=none;html=1;rounded=0;exitX=0;exitY=0.5;exitDx=0;exitDy=0;entryX=1;entryY=0.5;entryDx=0;entryDy=0;" edge="1" parent="1" source="g_sOR0M3uAeWTvC2kGnq-23" target="pDRQpuuFtB-g-X7B2x5A-11">
          <mxGeometry width="50" height="50" relative="1" as="geometry">
            <mxPoint x="495" y="630" as="sourcePoint" />
            <mxPoint x="-185" y="650" as="targetPoint" />
            <Array as="points" />
          </mxGeometry>
        </mxCell>
        <mxCell id="pDRQpuuFtB-g-X7B2x5A-11" value="Held" style="rhombus;whiteSpace=wrap;html=1;" vertex="1" parent="1">
          <mxGeometry x="310" y="490" width="80" height="80" as="geometry" />
        </mxCell>
        <mxCell id="pDRQpuuFtB-g-X7B2x5A-58" value="" style="endArrow=none;html=1;rounded=0;entryX=0.43;entryY=0.001;entryDx=0;entryDy=0;exitX=0;exitY=1;exitDx=0;exitDy=0;entryPerimeter=0;" edge="1" parent="1" source="g_sOR0M3uAeWTvC2kGnq-1" target="pDRQpuuFtB-g-X7B2x5A-27">
          <mxGeometry width="50" height="50" relative="1" as="geometry">
            <mxPoint x="870" y="130" as="sourcePoint" />
            <mxPoint x="772" y="268" as="targetPoint" />
          </mxGeometry>
        </mxCell>
        <mxCell id="pDRQpuuFtB-g-X7B2x5A-27" value="CreatedBy" style="rhombus;whiteSpace=wrap;html=1;rotation=10;" vertex="1" parent="1">
          <mxGeometry x="740" y="170" width="80" height="80" as="geometry" />
        </mxCell>
      </root>
    </mxGraphModel>
  </diagram>
</mxfile>
